<svg width="251" height="250" viewBox="0 0 251 250" fill="none" xmlns="http://www.w3.org/2000/svg">
<path d="M206.798 198.204C225.452 177.491 235.495 150.437 234.874 122.569C234.253 94.7007 223.016 68.1211 203.458 48.2593L167.858 83.3153C178.482 94.1046 184.586 108.543 184.923 123.681C185.261 138.82 179.805 153.516 169.672 164.767L206.798 198.204Z" fill="#49BEFF"/>
<path d="M203.318 48.0736C187.078 31.6593 166.059 20.8059 143.273 17.0679C120.486 13.3298 97.1015 16.8989 76.4676 27.2639L98.8948 71.9103C110.103 66.2799 122.806 64.3411 135.184 66.3717C147.562 68.4023 158.98 74.298 167.802 83.2145L203.318 48.0736Z" fill="#13DEB9"/>
<path d="M84.0249 23.8228C68.8451 30.0558 55.2622 39.6245 44.2827 51.8199C33.3031 64.0153 25.2083 78.5248 20.5978 94.2735C15.9874 110.022 14.9795 126.606 17.6489 142.798C20.3183 158.989 26.5965 174.372 36.0185 187.807C45.4404 201.242 57.7645 212.385 72.0778 220.411C86.3911 228.436 102.327 233.138 118.704 234.168C135.081 235.199 151.481 232.531 166.687 226.363C181.893 220.194 195.517 210.684 206.548 198.535L169.559 164.948C163.567 171.547 156.166 176.713 147.906 180.064C139.646 183.415 130.737 184.864 121.841 184.304C112.945 183.744 104.288 181.19 96.5129 176.831C88.7377 172.471 82.0431 166.418 76.9249 159.12C71.8068 151.822 68.3964 143.465 66.9463 134.67C65.4962 125.875 66.0437 116.866 68.5482 108.311C71.0527 99.7561 75.4499 91.8743 81.4142 85.2495C87.3784 78.6248 94.7569 73.4269 103.003 70.041L84.0249 23.8228Z" fill="#5D87FF"/>
</svg>
